<svg xmlns="http://www.w3.org/2000/svg" width="22" height="22" viewBox="0 0 48 48">
  <g>
    <path fill="#4285F4" d="M43.6 20.5h-1.9V20H24v8h11.3c-1.6 4.3-5.7 7-11.3 7-6.6 0-12-5.4-12-12s5.4-12 12-12c2.7 0 5.2.9 7.2 2.4l6-6C36.1 5.1 30.4 3 24 3 12.9 3 4 11.9 4 23s8.9 20 20 20c11 0 19.7-8 19.7-20 0-1.3-.1-2.7-.3-4z"/>
    <path fill="#34A853" d="M6.3 14.7l6.6 4.8C14.5 16.1 18.9 13 24 13c2.7 0 5.2.9 7.2 2.4l6-6C36.1 5.1 30.4 3 24 3 16.3 3 9.3 7.6 6.3 14.7z"/>
    <path fill="#FBBC05" d="M24 44c6.2 0 11.4-2 15.2-5.4l-7-5.7C29.5 34.5 26.9 35.5 24 35.5c-5.6 0-10.3-3.8-12-9H6.3C9.3 40.4 16.3 44 24 44z"/>
    <path fill="#EA4335" d="M43.6 20.5h-1.9V20H24v8h11.3c-1.1 3-3.7 5.5-7.3 6.5l7 5.7C41.7 37.1 44 31.7 44 24c0-1.3-.1-2.7-.4-4z"/>
  </g>
</svg> 