<svg width="3840" height="3840" viewBox="0 0 3840 3840" fill="none" xmlns="http://www.w3.org/2000/svg">
  <defs>
    <radialGradient id="fond" cx="50%" cy="50%" r="60%">
      <stop offset="0%" stop-color="#3a506b"/>
      <stop offset="100%" stop-color="#1c2541"/>
    </radialGradient>
    <linearGradient id="accentGreen" x1="0" y1="0" x2="1" y2="1">
      <stop offset="0%" stop-color="#7ed957"/>
      <stop offset="100%" stop-color="#43e97b"/>
    </linearGradient>
    <filter id="shadow" x="-10%" y="-10%" width="120%" height="120%">
      <feDropShadow dx="0" dy="32" stdDeviation="32" flood-color="#000" flood-opacity="0.10"/>
    </filter>
    <filter id="text-glow" x="-30%" y="-30%" width="160%" height="160%">
      <feGaussianBlur stdDeviation="40" result="glow"/>
      <feMerge>
        <feMergeNode in="glow"/>
        <feMergeNode in="SourceGraphic"/>
      </feMerge>
    </filter>
    <filter id="text-shadow" x="-20%" y="-20%" width="140%" height="140%">
      <feDropShadow dx="0" dy="32" stdDeviation="32" flood-color="#000" flood-opacity="0.45"/>
    </filter>
    <filter id="box-shadow" x="-10%" y="-10%" width="120%" height="120%">
      <feDropShadow dx="0" dy="24" stdDeviation="24" flood-color="#000" flood-opacity="0.18"/>
    </filter>
  </defs>
  <!-- Fond cercle lisse -->
  <circle cx="1920" cy="1920" r="1700" fill="url(#fond)"/>
  <!-- Flèche circulaire cycle affinée -->
  <path d="M1920 400 a1520 1520 0 1 1 -0.1 0" fill="none" stroke="#fff" stroke-width="32" stroke-linecap="round" opacity="0.10"/>
  <path d="M1920 400 a1520 1520 0 0 1 1400 1520" fill="none" stroke="url(#accentGreen)" stroke-width="32" stroke-linecap="round" opacity="0.55" filter="url(#shadow)"/>
  <!-- Pointe de flèche affinée -->
  <polygon points="3320,1920 3440,1890 3380,2020" fill="#7ed957" opacity="0.7" filter="url(#shadow)"/>
  <!-- Icône horloge en haut à gauche (sur la tête du A) -->
  <g filter="url(#box-shadow)">
    <circle cx="1200" cy="900" r="110" fill="#fff" stroke="#bfc9d1" stroke-width="24"/>
    <circle cx="1200" cy="900" r="20" fill="#bfc9d1"/>
    <rect x="1190" y="820" width="20" height="70" rx="10" fill="#7ed957"/>
    <rect x="1200" y="900" width="50" height="14" rx="7" fill="#ffb347" transform="rotate(30 1200 900)"/>
  </g>
  <!-- 3 petits carrés déplacés à droite du texte ApTe, alignés verticalement, séparés du texte -->
  <g filter="url(#box-shadow)">
    <rect x="2600" y="1500" width="120" height="120" rx="28" fill="#3a7ca5" stroke="#bfc9d1" stroke-width="16"/>
    <rect x="2600" y="1650" width="120" height="120" rx="28" fill="#3a7ca5" stroke="#bfc9d1" stroke-width="16"/>
    <!-- 3e superposé verticalement sur la tête du 2e -->
    <rect x="2600" y="1520" width="120" height="120" rx="28" fill="#3a7ca5" stroke="#bfc9d1" stroke-width="16"/>
    <!-- Coche blanche dans le 1er carré -->
    <polyline points="2625,1560 2660,1595 2705,1525" fill="none" stroke="#fff" stroke-width="20" stroke-linecap="round" stroke-linejoin="round"/>
  </g>
  <!-- Texte ApTe centré, lumineux, visible, avec glow et ombre -->
  <text x="50%" y="2100" text-anchor="middle" font-family="'Segoe UI', Arial, sans-serif" font-size="800" font-weight="bold" fill="#fff" filter="url(#text-glow) url(#text-shadow)">ApTe</text>
</svg>